ply
format ascii 1.0
element vertex 27
property float64 x
property float64 y
property float64 z
property float64 vx
property float64 vy
property float64 vz
property float64 s
element face 36
property list uint8 int32 vertex_indices
end_header
-10.000000	10.000000	10.000000	0.000000	0.000000	0.000000	10.000000
0.000000	10.000000	10.000000	0.000000	0.000000	0.000000	20.000000
10.000000	10.000000	10.000000	0.000000	0.000000	0.000000	30.000000
-10.000000	0.000000	10.000000	0.000000	0.000000	0.000000	0.000000
0.000000	0.000000	10.000000	0.000000	0.000000	0.000000	10.000000
10.000000	0.000000	10.000000	0.000000	0.000000	0.000000	20.000000
-10.000000	-10.000000	10.000000	0.000000	0.000000	0.000000	-10.000000
0.000000	-10.000000	10.000000	0.000000	0.000000	0.000000	0.000000
10.000000	-10.000000	10.000000	0.000000	0.000000	0.000000	10.000000
-10.000000	10.000000	0.000000	0.000000	0.000000	0.000000	0.000000
0.000000	10.000000	0.000000	0.000000	0.000000	0.000000	10.000000
10.000000	10.000000	0.000000	0.000000	0.000000	0.000000	20.000000
-10.000000	0.000000	0.000000	0.000000	0.000000	0.000000	-10.000000
0.000000	0.000000	0.000000	0.000000	0.000000	0.000000	0.000000
10.000000	0.000000	0.000000	0.000000	0.000000	0.000000	10.000000
-10.000000	-10.000000	0.000000	0.000000	0.000000	0.000000	-20.000000
0.000000	-10.000000	0.000000	0.000000	0.000000	0.000000	-10.000000
10.000000	-10.000000	0.000000	0.000000	0.000000	0.000000	0.000000
-10.000000	10.000000	-10.000000	0.000000	0.000000	0.000000	-10.000000
0.000000	10.000000	-10.000000	0.000000	0.000000	0.000000	0.000000
10.000000	10.000000	-10.000000	0.000000	0.000000	0.000000	10.000000
-10.000000	0.000000	-10.000000	0.000000	0.000000	0.000000	-20.000000
0.000000	0.000000	-10.000000	0.000000	0.000000	0.000000	-10.000000
10.000000	0.000000	-10.000000	0.000000	0.000000	0.000000	0.000000
-10.000000	-10.000000	-10.000000	0.000000	0.000000	0.000000	-30.000000
0.000000	-10.000000	-10.000000	0.000000	0.000000	0.000000	-20.000000
10.000000	-10.000000	-10.000000	0.000000	0.000000	0.000000	-10.000000
4 0 1 4 3
4 1 2 5 4
4 3 4 7 6
4 4 5 8 7
4 9 10 13 12
4 10 11 14 13
4 12 13 16 15
4 13 14 17 16
4 18 19 22 21
4 19 20 23 22
4 21 22 25 24
4 22 23 26 25
4 0 1 10 9
4 1 2 11 10
4 9 10 19 18
4 10 11 20 19
4 3 4 13 12
4 4 5 14 13
4 12 13 22 21
4 13 14 23 22
4 6 7 16 15
4 7 8 17 16
4 15 16 25 24
4 16 17 26 25
4 0 9 12 3
4 3 12 15 6
4 9 18 21 12
4 12 21 24 15
4 1 10 13 4
4 4 13 16 7
4 10 19 22 13
4 13 22 25 16
4 2 11 14 5
4 5 14 17 8
4 11 20 23 14
4 14 23 26 17
